<?xml version="1.0" encoding="UTF-8"?>
<svg version="1.1" viewBox="0 0 1600 1314" width="459" height="377" xmlns="http://www.w3.org/2000/svg">
<path transform="translate(1121,62)" d="m0 0 4 1 6 22 16 68 16 63 14 58 11 43 27 108 8 31 2 5h11l37-3 14 2 9 4 8 6 5 10v11l-5 10-7 6-12 5-21 5v82l2 29 5 24 14 52 7 29v9l-6 18-9 17-16 24 1 9 22 83 6 26-1 4-75 19-128 32-57 14-91 23-46 11-74 19-86 21-64 16-93 23-50 12-35 9h-8l-6-20-21-87-18-71-16-65-17-67-12-50-15-57-1-6-12-1-9-4-6-5-5-9-1-11 4-24 5-26v-14l-10-41-11-46-1-4h-7l-13 3-1 12v38l2 56v45l-4 11-7 8-12 5-13 2h-12l-10-3-10-6-6-7-3-6-1-7-2-84v-57l-1-2-25-3-11-4-9-8-3-7-1-10 3-10 6-9 9-6 6-2 16-1h34l28-1 26-2 5-1-1-10-9-38-19-74-4-17 1-3 55-14-4-17-5-20v-5l9-3 67-16 62-16 62-15 48-13 47-11 172-43 109-27 49-13 38-9 108-27zm-8 7-31 7-47 12-56 14-38 9-128 32-141 35-62 16-31 7-46 12-70 17-43 11-64 16-21 6-1 3 7 34 4 1 50-13 68-16 49-13 67-16 79-20 42-10 66-17 47-11 49-13 71-17 66-17 54-13 32-8h3l7 27 16 64 21 82 7 29 35 140 4 4h17l23-1-2-11-13-49-22-90-32-128-11-41-6-24-9-41-3-9zm154 598-7 13-5 5-7 4-14 4 1 9 9 36 2 3h13l21-3 4-2 1-3-6-28-9-36-1-2zm7 77-27 2 1 8 9 34 3 3 5-6 8-13 8-16 3-8v-4z" fill="#455A98"/>
<path transform="translate(421,452)" d="m0 0h13l12 3v2l7 2 6 5 5 9 7 27 6 30 3 14 5 21 3 14 7 27 5 20 4 18v3l2 1 2 9 2 1 1 1 1-7 1-10 1-6v-7l5-12 9-10 7-3h3l2-4 9-3v-2l-3-1-1-4 2-3 3-1-1-8-4-10-12-18-6-14-3-10-1-8v-9l3-14 4-10 1 3-4 13-1 17 3 16 5 12 8 14 11 15 12 16 11 18 4 9v5l-8-10v-2l-5-2-8-3h-18l-12 6-2 3h-2l-2 5-3 6-1 4v13l4 14 7 12 9 10 8 6 16 7 12 3h25l12-3 17-7 10-7 7-8 8-16 3-13v-25l-4-17-4-10 1-3 6 14 1 5 4 1v2h2v3l4 1 5-1 3 3 2 3 3 1v-3h2l-2-89v-46l1-5h1v38l2 77 2 57 2 23 2 9 6 9 10 6 12 3h14l12-3 8-4 5-5 4-8 1-7-2-36v-10h2l7 15 5 19 4 21 4 8 8 7 11 4h14l11-4 10-9 3-7v-11l-4-24-4-14-8-19-9-14-9-10 1-4 5-8 4-7 1 4 5 1 6-1 2 3 8-1 2-1 2 8-1 2 4-1-1-5 3 1 1-5 9-3 11-3 28-3 12-1 14-3 10-1h18 1l6 1v-2h6v2l5-1-1-5h8l1-2-5 1v-2l-7 1-4-1v-2h2l2-4 5-1 9-2h3v-3l3-1v2h2l1-2 1 2h7l1-2 17-2 9-4h4l6-8 3-2 3-10 1-2 1-23 2-12 9-9 2 1-7 7-2 4-1 12-1 30v74l3 54 4 31 5 10 8 6 10 4h23l11-3 8-6 6-8 1-3v-17l-4-45-2-45v-95l-5-8-10-6-5-2-17-2-12 2-10 3 1-3 19-5 14 1v2h8l12 6 5 5 6 11 4 8 6-1 2-4 5-5 8-9 6-4 14-4 9 1v1l-16 3-8 4-7 6-5 10v15l3 6 7 6 9 4 8 2 20 1 2 1 1 84 2 63 2 9 5 7 10 6 10 3 16 1 2 3 6 26 4 17-14 1-32-2-26-2 2 10 5 16 5 20 2 14v31l-3 16-5 13-6 12-4 3-22 6-244 61-34 9-70 17-50 13-73 18-23 6-18 5-69 17-26 7-8 2h-6l-3-6-5-22-2-6-2-11-5-18-11-44-8-36-7-29-9-35-5-22-11-46-8-36-3-10-2-12-8-10-6-3v6h-1v-9l-4-1v3l1 5 3 6 4 3 2 6 5 18 12 44 20 79 11 42 20 79 11 42 7 27 6 1 36-9 47-12 73-18 35-9 65-16 39-10 63-16 128-32 66-17 92-23 8-4 13-9 16-12 14-12 9-8 7-8 20-18 2 2 11 40 11 42 7 30-1 4-75 19-128 32-57 14-91 23-46 11-74 19-86 21-64 16-93 23-50 12-35 9h-8l-6-20-21-87-18-71-16-65-17-67-12-50-15-57-1-6-12-1-9-4-6-5-5-9-1-11 4-24 5-26v-14l-1-7 2-1 2 1 1-8 7-30 11-43 9-32 7-17 4-5 9-6 12-4z" fill="#3095BC"/>
<path transform="translate(1121,62)" d="m0 0 4 1 6 22 16 68 16 63 14 58 11 43 31 124 3 21-3-1v-2h-2l-16-61-21-86-32-128-11-41-6-24-9-41-2-9-26 5-59 15-56 14-38 9-128 32-141 35-62 16-31 7-46 12-70 17-43 11-64 16-21 6 3 17 4 19 10-2 56-14 55-13 49-13 67-16 79-20 42-10 66-17 47-11 49-13 71-17 66-17 54-13 32-8 4 1 7 27 16 64 11 43v7l-4 8-5 1-3-2-7-2-7-4v-2l-2 1-14 1-10 3h-2l-4 1v-2l-7 4-8 6-15 5-1 1h-7l-6 2-14 2-8 3-2 1h-7l-7 3h-7l-6 3h-11v2l-9 2h-11l-18 3-8 3-8 1-3 1-7 1-12 3-7 3-12 3-13 4-9 1-10 3-3 1-4-1-5 2-12 3-4 2-7 2-9 3h-2v2l-11 1-5 1-17 5-4 1-2-1v2l-12 3-7 2-16 2-6 2-7-1-1 2h-2l-2 2-9 1-10 2-7 2h-5-1v2l-8-1-5 4-2-1v-2h-7v2l-2 1v2l-8 5-12 3-10 2-9 3h-9v2l-13 3-4 2-12 3-13 3-14 2-4 1v2l-11 4-2 2-11-1h-2l-1-2-2 2-14 1-8 4-5 3h-7l-5 4-3 3-2-2-5 1-7 2-11-1-7 2-5 1h-2l-6 7-2 1h-6v2l-7 1-7 2-2 11-1 3-1 13-2 8-2-1-6-26-8-30-9-36-4-17-6-20-1-4-1 5 4 14 3 11 4 21 8 35 5 24 4 18v5h-3l-4-10-5-10-4-2-8-1h-27l-3-1-3-4v-2l-3-1-5-10v-3l-2-1-2-6-2-1-6-23-18-70-1-7 8-3 48-12-4-17-5-20v-5l9-3 67-16 62-16 62-15 48-13 47-11 172-43 109-27 49-13 38-9 108-27z" fill="#533581"/>
<path transform="translate(1123,255)" d="m0 0 2 4 8 31v11l-2 12-5 1h-9l-9 1-4 2-16 1-6 2-2 1-17 1v5l-6 4h-19l-4 2h-4v3l-10 2-21 7-8 2-10 2h-16l-13 2-6-1v2l-17 3-14 3-1 2-14 2-20 6-8 2-1 2h-8l-8 3-4 2-7 1-6 4-13 2-6 4-17 4-9 3-5 3-8 3-4 1-3-1-3 3h-8l-16 4-8 1-20 6-4 1-10 4-7-1v2l-9 2h-6l-13 4-6 2-7-1h-2v2l-13 3-3 2-8 2-4 5-4 2v5l-2 1-1 4-5 3-7-1-11-2h-22l-18 4v2l-8 4-8 7-7 10-5 11-3 10-1 7v9l2 12 6 16 7 12 8 11 4 13-1 5-3 1-1 4 3 3v2l-10 5-1 2-10 4-8 9-5 12v8l-2 12v8l-2 7-2-4-8-24-2-10-7-29-5-18-6-25-2-10-5-24-6-28-6-21-6-9-4-3-6-2v-2l-12-2h-13l-16 4-8 5-3 1-2 4-5 11-5 14-8 28-10 40-9 38h-4l-6-21-13-56-2-7h-7l-13 3-1 12v38l2 56v45l-4 11-7 8-12 5-13 2h-12l-10-3-10-6-6-7-3-6-1-7-2-84v-57l-1-2-25-3-11-4-9-8-3-7-1-10 3-10 6-9 9-6 6-2 16-1h34l28-1 26-2 5-1-1-10-7-31 3 1 1 6 3 1 1 6 4 7 5 5v2h31l9 2 4 4 5 10 3 8h1l-1-10-5-21-6-30-8-35-3-15-3-9-2-8 1-6 2 2 8 27 7 28 5 21 8 30 6 26 2-7 1-13 2-6 1-8 10-4 5 1v-2l8-2 5-6 1-2 5 1 9-3 11 1 9-2h2l2-2 2 3 4-5 5-2h5l5-3 8-4 9-1 5 1 1-3 3 1-1 2 2-1h6l5 1 5-3h3l1-2h4v-2l5-2 23-4 9-3 9-2 6-2 8-1v-2l9-1 9-3 12-2 12-4 4-3h2l-1-3h3v-2l5-1 5 3 4-4 8 2v-2l-3-1 4-1v2l10-2 12-3 9-1 3-3h2 8l10-3 16-2 5-2 9-1v-2l6-1 17-5 5-1h11v-2l11-4 21-7 6-1 3-1 3 1 8-3 9-2 8-1 12-4 9-2 10-4 9-2 7-1 11-2 8-3 21-3h11l6-1v-2l11-1 6-3h8l6-3h8l5-3 8-2 14-2 4-1h5l9-4 9-3 10-8 7 1 1-2h4l7-2 16-1 3 3 5 3 12 3h2l1-4z" fill="#4C468E"/>
<path transform="translate(1261,810)" d="m0 0 2 4 17 64 9 36 1 8-8 3-244 61-321 80-227 56h-8l-6-20-21-87-18-71-1-6 3-1 2 10 3 1v2h2l1 2h2l1 7 4 1 2-4 3-7 7-6 5-6 9-1 4 3v2h2l5 13 5 9 6 20 7 21 7 28 4 9h10l28-8 44-10 50-13 29-8 41-10 17-4 28-7 40-11 56-13 29-8 17-4 35-9 25-6 40-10 30-8 20-5 20-4 74-19 18-5 9-3 11-7 19-13 13-11 10-8 3-1 2-4 18-18 2-3z" fill="#22C2D8"/>
<path transform="translate(1163,771)" d="m0 0 5 4 7 8 3 5 4 21v20l-4 18-4 10-3 6-5 6-4 2-9 2-15 4-23 5-19 5-18 5-24 7-17 4-46 12-42 10-17 4-27 7-14 4-36 9-34 8-68 18-43 10-24 6-21 5-26 7-37 8-30 8-24 7-12 3h-6l-3-4-5-24-4-21-3-24v-23l3-7 4-3h10l11-1 5 3 10 1 7 3 17 2 7-2 12-1 3-4 2-6 3-2 6 1 5 3 2 1 2 4 3-2 1 2 7-1 6-3 7-8 6-5 5-5 14-7 5-2 23-5 4-2 14-3 24-8 13-3 19-6 20-4 8-1 22-6 14-4 11-2 16-1 8-3 9-2 14-6 12-4 19-4 17-4 19-5 20-3 15-4 10-5 9-2 17-4 8-1 16 3h7l6 1h14l13-1 13-3 5-5 7-3h6l15-8 7-6 5-1 2-5z" fill="#24B1CD"/>
<path transform="translate(1219,445)" d="m0 0 2 4 4 12h11l37-3 14 2 9 4 8 6 5 10v11l-5 10-7 6-12 5-21 5v82l2 29 5 24 14 52 7 29v9l-6 18-9 17-16 24-2 5-12 11-13 12-7 8-11 9-8 7-15 11-18 12-26 7-49 12-54 14-73 18-70 18-324 81-34 9-17 4-6-1-3-8-14-54-18-71-10-40-11-42-17-67-10-36-4-14v-3l-2-1-1-4-3-1-1-5-2-1-2-3 1-5 3-1 3 2v3l4 1 6 5 5 7 3 15 5 21 11 48 6 24 5 22 8 31 10 42 7 30 10 40 5 19 2 10 5 19 3 12 14-3 30-8 65-16 30-8 123-31 112-28 30-8 62-15 50-13 45-11 48-12 31-8 6-3 8-16 4-13 2-12v-31l-3-18-6-24-4-11v-7l5-1 33 3 27 1h21l21-3 3-1 1-3-6-28-9-36v-2h-2l-2 6-7 11-7 5-13 4h-4l-1 2-16-1-12-4-10-7-5-8-1-7-2-63v-84l-22-1-13-4-8-5-6-7-1-3v-15l5-10 9-8 10-4 17-2h40l1-3 3 3-3-12zm55 299-27 2 1 8 9 34 3 3 5-6 8-13 8-16 3-8v-4z" fill="#5AE0E6"/>
<path transform="translate(783,449)" d="m0 0h23l11 4 9 6 1 4h2l3 6 1 10v21l-1 15-6 25-1 8-3 5-8 18-6 10-2 2 1 4 9 10 8 13 9 21 5 22 2 14v11l-4 8-7 7-10 5-4 1h-14l-11-4-8-7-4-6-3-13-5-24-5-13-3-6v-2h-2l2 26 1 22-3 10-5 7-8 5-9 3-6 1h-14l-14-4-9-6-6-9-2-9-2-23-3-89-1-45v-31l1-10 1-2h2v-3l6-5 5-5 11-4h18l16 5 4 2 5 5 3 2v3l3 1 4-8 5-5h2v-2h3v-2l9-4z" fill="#58DCE4"/>
<path transform="translate(417,455)" d="m0 0h17l10 2 10 6 6 9 5 18 4 17 7 33 5 26 5 23 6 27 3 14 6 23 4 14v9l-3 8-5 6h-2l-1 3-10 5-4 1h-23l-10-4-5-4-8-12-11-32-5-3-5 1-3 7-6 28-5 8-6 5-11 4h-6v2l-12-1-9-4-6-5-5-9-1-11 4-24 7-36 6-18 11-44 7-26 10-38 5-13 5-5 8-6z" fill="#5AE0E6"/>
<path transform="translate(574,453)" d="m0 0h22l14 3 9 4 6 3 10 9 4 4 6 10 2 5 2 15v20l-4 9-5 5-3 1v2l-5 2h-11v2l4 2 3 5 3 3v2h2l11 17 5 9 7 21 2 10v25l-4 15-7 14-9 10-11 7-15 6-12 3h-25l-15-4-16-8-10-9-7-9-6-11-3-12v-13l3-9 4-6h2l2-4 12-6h18l10 4 5 5 5 7-1-5-8-16-12-17-10-13-10-15-6-10-5-14-2-13 1-17 6-20 9-12 8-7 7-2v-2l13-4z" fill="#58DDE4"/>
<path transform="translate(315,455)" d="m0 0 5 2 13 2 12 6 5 5 4 6 1 3v14l-5 10-7 6-12 5h-8l-13 3-1 12v38l2 56v45l-4 11-7 8-12 5-13 2h-12l-10-3-10-6-6-7-3-6-1-7-2-84v-57l-1-2-25-3-11-4-9-8-3-7-1-10 3-10 6-9 9-6 6-2 16-1h34l28-1 26-2 5-1z" fill="#5AE0E6"/>
<path transform="translate(1357,450)" d="m0 0h9l13 2 12 6 5 5 5 7 2 7 1 13 1 50v30l-1 57-2 7 1 8 5 15 1 5v15l-3 7-7 8-10 6-14 4h-17l-12-4-10-8-5-8-3-14v-21l2-5-1-6-3-6-1-6-1-92-1-54 4-10 7-8 8-6 8-3z" fill="#5AE0E6"/>
<path transform="translate(1077,457)" d="m0 0 17 2 12 6 5 5 4 6v100l2 40 4 45v17l-4 8-7 7-8 4-8 2h-23l-12-5-7-6-5-10-4-31-3-54v-74l1-30 1-12 4-6 7-8 16-5z" fill="#59DEE5"/>
<path transform="translate(1266,640)" d="m0 0h2l8 31 10 37 6 25v9l-6 18-9 17-16 24-2 5-12 11-13 12-7 8-11 9-8 7-15 11-18 12-26 7-49 12-54 14-73 18-70 18-324 81-34 9-17 4-6-1-3-8-14-54-18-71-10-40-11-42-17-67-10-36-4-14v-3l-2-1-1-4-3-1-1-5-2-1-2-3 1-5 3-1 3 2v3l4 1 6 5 5 7 3 15 5 21 11 48 6 24 5 22 8 31 10 42 7 30 10 40 5 19 2 10 5 19 3 12 14-3 30-8 65-16 30-8 123-31 112-28 30-8 62-15 50-13 45-11 48-12 31-8 6-3 8-16 4-13 2-12v-31l-3-18-6-24-4-11v-7l5-1 33 3 27 1h21l21-3 3-1 1-3-6-28-10-40-2-16zm8 104-27 2 1 8 9 34 3 3 5-6 8-13 8-16 3-8v-4z" fill="#375979"/>
<path transform="translate(787,468)" d="m0 0h15l8 3 4 10v14l-2 17-5 23-5 16-8 16-8 12-6 7h-2v3l5 2v2l5 2 2 4 4 2 7 8 7 12 6 14 3 9 3 19v12l-5 3-9 1-8-2-3-13-5-22-7-17-4-7v-2h-2l-3-5-8-8-2-1v-2l-6 2v2l-17 9-1 3 2 38 1 18-6 5-4 1h-15l-7-3-4-5-2-26-2-54-2-63v-47l4-5 6-2h16l8 4 2 2 2 73v29l8-7 7-10h2v-3h2l1-5 4-7 6-16 5-23 2-21 1-14 1-3z" fill="#010101"/>
<path transform="translate(1057,457)" d="m0 0h6v2l-7 2-4 4-9 7-2 6-1 8-1 23-3 9-3 5-9 9-5 1-7 3-17 1-1 3h-8l-1-1h-4l-2 4-3-1-9 2-5 2-1 2-1 1 6 1h4v2l5-1-1 3h-6l-2-1v2l4 1-3 3h-5v-2h-6v2h-5l-4 1v-1h-22l-11 3-16 2-25 2-15 3-6 3-5 1-1 4h-2l1 4-2 3v-2h-3l-1-8h-2l-8 1-2-4-9 2-3-3 2-8 6-13 1-1 2-11 5-22 1-15v-28l2 4v41l3 1 2-6 5-7 4 2v2h7l6 1 7-2 8-1 7-1 14-5 10-1 4-3 5-1 13-4 9-2 4-2 9-2 4-2 10-2 4 1 9-2 1-1 9-1h4l9-1v-2l4-2 5-1 2-1h6l4 4 2-4 6 2 7-1 1-3 6-3 4-4z" fill="#406DA6"/>
<path transform="translate(421,474)" d="m0 0h11l9 3 4 8 7 29 9 47 9 43 11 48 5 17-1 6-4 4-5 1h-15l-7-3-5-8-6-21-5-22-1-1h-10l-6 1-22 1-4 4-5 26-4 18-6 3h-10l-4-2-1-2v-7l8-40 11-54 10-40 11-41 4-11 7-6z" fill="#010101"/>
<path transform="translate(416,451)" d="m0 0h21l12 3 9 5v2l4 2v2l3 1 5 13v2h2l1-4 2-3 8-1-1-4 2-1h10l1 3 10-1 1 3 6-1 6-3 4-5 14-2 3-1 1 2 6-4 15-5 4 1-4 2-5 1v2l-8 4-8 7-7 10-5 11-3 10-1 7v9l2 12 6 16 7 12 8 11 4 13-1 5-3 1-1 4 3 3v2l-10 5-1 2-10 4-8 9-5 12v8l-2 12v8l-2 7-2-4-8-24-2-10-7-29-5-18-6-25-2-10-5-24-6-28-6-21-6-9-4-3-6-2v-2l-12-2h-13l-16 4-8 5-3 1-2 4-5 11-5 14-8 28-10 40-9 38h-4l-6-21-13-56-1-8 12-5 6-5 5-10v-14l-4-8-1-3-16-8-16-3-2-3 19 3 10 5 8 7 4 8 3 16 6 2 6-5v-2l7-3h4l3-9 3-8 7-9 5-3h2v-2l11-2z" fill="#455A98"/>
<path transform="translate(579,471)" d="m0 0h17l14 5 4 2 5 5 6 9 5 16v10l-3 5-1 1h-13l-3-17-5-12-7-6v-2h-10l-4 8-2 9v10l3 12 8 14 10 13 11 14 10 14 5 9 4 7 5 16 1 5v19l-3 13-4 9-5 5-8 6-12 5-8 2h-24l-13-4-11-7-9-12-4-9-1-4v-8l3-6 3-2 11-1 5 3 9 17v2h2l4 6 9 6 5-1 5-5 5-12v-24l-6-17-9-15-13-17-8-10v-2h-2l-5-9-8-16-2-8v-18l4-13 6-8 8-7 10-4z" fill="#010101"/>
<path transform="translate(1265,477)" d="m0 0h15l6 3 3 3-1 5-4 4-12 3-24 2-5 1v85l2 59v23l-2 5-5 3h-22l-6-4-2-6-1-51-1-112h-29l-16-3-5-5 2-6 8-5 70-1z" fill="#010101"/>
<path transform="translate(951,562)" d="m0 0h37l11 2 9 4 7 6 3 7v14l-5 10-8 6-10 4-6 1-26 1h-74l-17-2-13-4-8-6-5-9v-11l5-10 5-4 7-3 16-2 43-3z" fill="#59DEE5"/>
<path transform="translate(305,478)" d="m0 0h22l6 4 1 5-6 5-6 2-7 1-17 1-8 2-2 6v76l2 52v35l-5 5-6 2h-13l-6-2-5-5-1-4-1-54v-109l-39-1-11-4-1-1v-6l4-4 6-3h44l31-1z" fill="#010101"/>
<path transform="translate(1073,477)" d="m0 0h12l7 2 5 5v104l4 69 1 15-3 5-7 3h-17l-7-4-2-6-4-40-2-34v-85l1-23 2-7 6-3z" fill="#010101"/>
<path transform="translate(1358,470)" d="m0 0h12l8 3 3 3 1 4 2 47v76l-1 21-4 5-5 2h-17l-6-3-4-4-1-3-1-140 1-5 8-5z" fill="#010101"/>
<path transform="translate(1121,62)" d="m0 0 4 1 6 22 16 68 16 63 14 58 11 43 31 124 3 21-3-1v-2h-2l-16-61-21-86-32-128-11-41-6-24-9-41-2-9-26 5-59 15-56 14-38 9-128 32-141 35-62 16-31 7-46 12-70 17-43 11-65 16-3-3 6-1v-2l46-11 62-16 62-15 48-13 47-11 172-43 109-27 49-13 38-9 108-27z" fill="#162131"/>
<path transform="translate(1129,890)" d="m0 0h6l-3 2-26 7-13 4-19 4-10 2-14 3-7 2-1 1-12 2-13 4-15 4-22 5-29 7-18 4-18 5-24 6-20 6-12 3h-5v2l-12 2-21 4-16 4-36 10-19 5-9 2-6 2-11 3-13 2-18 5-17 4-25 7-22 6-1 1-11 2-15 4-9 2-20 4-24 6-5 2-12 3-9 2-8-3-7-9-3-9-2-4-5-3h-6l-6 8-4 3 2 2-4 9-3 4v-3l-6 1-2-9-4-2v-2h-2l-4-7-1-3-3-3-18-71-1-6 3-1 2 10 3 1v2h2l1 2h2l1 7 4 1 2-4 3-7 7-6 5-6 9-1 4 3v2h2l5 13 5 9 6 20 7 21 7 28 4 9h10l28-8 44-10 50-13 29-8 41-10 17-4 28-7 40-11 56-13 29-8 17-4 35-9 25-6 40-10 30-8 20-5 20-4 43-11z" fill="#24B1CD"/>
<path transform="translate(1186,744)" d="m0 0 30 2 31 1 11 41 2 4-7 8-9 11-12 13-8 8-8 7-14 11-11 8h-5v-6l4-14 2-26-1-24-4-21-4-15v-7z" fill="#24B1CD"/>
<path transform="translate(312,473)" d="m0 0 13 1 8 3 1 3 2 1 1 8-2 4h-3v2l-11 4-4 1-13 1-9 3-1 2-1 17v45l1 54v44l-4 8-7 3-12 1-13-2-6-5-3-7-2-93v-31l1-36-12 1-18-1-13-4-4-4v-9l2-1v8l11 4 37 1 2 1 1 9v100l1 54 3 7 3 2 5 1h13l8-3 2-3v-35l-2-52v-76l2-6 3-2 6-1 17-1 10-2 6-3 2-2-1-5-5-3h-22l-18 2-32 1h-43l-7 3v-2l5-3 4-1 29-1 20 1 30-1v-2l2-1z" fill="#337394"/>
<path transform="translate(414,472)" d="m0 0h22l6 3 5 10 9 36 2 13 2 5 4 23 5 23 6 28v10h2l9 39 3 7-1 9-4 4-5 3-12 1-9-2-7-3-5-8-9-31-2-8v-4l-18 1-14 1-4 6-8 38-4 5-6 3h-10l-7-3-4-5v-14l5-24 8-35 4-20 9-34 8-34 9-32 4-6 4-4zm7 2-7 2-6 7-7 23-12 46-8 36-14 68-2 11v7l2 3 3 1h10l6-3 4-18 5-26 4-4 22-1 6-1h10l3 8 5 22 5 16 4 6 7 3h15l7-2 3-5-1-8-6-21-14-63-14-72-6-24-4-8-9-3z" fill="#2F8AAB"/>
<path transform="translate(1121,62)" d="m0 0 4 1 6 22 16 68 16 63 14 58 11 43 31 124 3 21-3-1v-2h-2l-16-61-21-86-32-128-11-41-6-24-9-41-2-9-12 1 2-2 10-3 2-1-1-1z" fill="#355D7D"/>
<path transform="translate(1186,744)" d="m0 0 30 2 31 1 2 7-1 7-12 2-20-1h-14l-3 3v17l1 8v19l-2 19-2 9-2 7 1 3 4-1 8-7 5-5h2v-2l8-7 12-11 4-5 5-5 6-7 5-6 3-1 3 2-7 8-9 11-12 13-8 8-8 7-14 11-11 8h-5v-6l4-14 2-26-1-24-4-21-4-15v-7z" fill="#3095BC"/>
<path transform="translate(1167,431)" d="m0 0 2 4 6 24 1 3h-11l-14 4-8 6-9 11-2 1-2 4-6 1-4-6-7-14v-2l-16-8-8-1v-2h-8l-5-1v-1l12-2h10l1-1 17-2 8-1 6-1h15l6-1 2 2h7l4 1 1-9-2-4 1-4z" fill="#406DA6"/>
<path transform="translate(421,452)" d="m0 0h13l12 3v2l7 2 8 11 5 16 8 35 6 31 9 41 6 27 6 25 6 22v10l-5 10-4 5-7 5-12 4h-20l-10-3-8-6-7-8-5-10-7-23-3-4-5 1-2 5-5 26-5 9-9 8-6 2-9 2-2 2v-5l9-2 9-4 6-5 4-10 6-28 4-5 7 1 4 5 10 30 9 13 10 5 3 1h23l11-4 8-7 4-7 1-4v-10l-8-27-4-16-4-21-5-22-6-30-10-49-7-26-5-10-9-6-5-2-7-1h-17l-11 4-8 6h-2l-2 4-5 13-20 76-10 39-4 11-1 6h-1l-2-17 2-1 2 1 1-8 7-30 11-43 9-32 7-17 4-5 9-6 12-4z" fill="#22C2D8"/>
<path transform="translate(951,581)" d="m0 0h41l6 4 1 5-5 4-7 2-84 1-26-1-9-3-2-2 1-4 4-2 6-1 51-2z" fill="#010101"/>
<path transform="translate(639,555)" d="m0 0 5 2 2 3 4-1 3 1h1l1-3 6 5 2-1 4 3v2l5-1 3-1 3 8 2 2 2-1v42h-2v3l-4-1-2-5-8 1-3-2v-3h-2l-1-2-3-1-8-19-5-7-6-11-4-7h3v-3h-2l1-2 3 1z" fill="#406DA5"/>
<path transform="translate(711,164)" d="m0 0h6v2h-2v2l-82 21-32 8-26 6-42 11-70 17-43 11-65 16-3-3 6-1v-2l46-11 62-16 62-15 48-13 47-11z" fill="#182536"/>
<path transform="translate(417,535)" d="m0 0 4 2 5 29 7 30 1 9-2 2-10 2-11 1h-9l-2-5 3-16 5-22 5-19 2-11z" fill="#327EA1"/>
<path transform="translate(1357,467)" d="m0 0h15l3 1v2h5l5 5 2 6 1 10 1 69-1 62-3 7-3 1v2l-9 3-19-1-4-2v-2l-4-2-2-4-1-8v-141l6-5zm1 3-8 3-4 3-1 5 1 140 3 5 5 4 3 1h17l6-3 3-4 1-21v-76l-2-47-2-5-6-4-4-1z" fill="#327796"/>
<path transform="translate(414,472)" d="m0 0h7v1l-10 3-5 6-2 9-4 17-16 64-8 35-9 45-2 11v13l5 3h10l6-3 3-11 5-26 3-10 4-2 23-1 12-1 2 2 6 26 4 14 2 9 6 5 8 2h10l12-4v2l-7 4-12 1-9-2-7-3-5-8-9-31-2-8v-4l-18 1-14 1-4 6-8 38-4 5-6 3h-10l-7-3-4-5v-14l5-24 8-35 4-20 9-34 8-34 9-32 4-6 4-4z" fill="#3195BC"/>
<path transform="translate(1362,644)" d="m0 0h11l8 4 4 5 2 8v12l-4 5-5 2-12 1-10-3-5-5-1-5v-17l5-5z" fill="#010101"/>
<path transform="translate(1255,476)" d="m0 0h28l2 1v2l-5-1h-15l-29 3-70 1-7 4-2 6 4 4 16 3h29l1 1 1 112 1 51 3 7 4 2 22 1-3 2h-17l-8-4-1-3h-2l-1-3-1-12-1-62-1-87h-29l-14-4-5-5v-7l6-7 3-1 55-1 21-1z" fill="#337191"/>
<path transform="translate(1179,304)" d="m0 0h5l4 13 31 124 3 21-3-1v-2h-2l-16-61-21-86z" fill="#335B7A"/>
<path transform="translate(1261,810)" d="m0 0 2 4-1 6-3 4-3 10-14 8-7 6-14 7-4 1-1 3-7 4-5 3h-2v2h-4v2l-6 4-13 5-10 4-28 7h-6l3-2 15-4 18-5 9-3 11-7 19-13 13-11 10-8 3-1 2-4 18-18 2-3z" fill="#23B1CD"/>
<path transform="translate(485,565)" d="m0 0 2 4 4 13 4 10 3 9 2 8 3 10 4-2 5-10 6 2h5l5-5 10-2v2l-10 4-8 9-5 12v8l-2 12v8l-2 7-2-4-8-24-2-10-7-29-5-18-2-7z" fill="#416DA6"/>
<path transform="translate(349,335)" d="m0 0 2 2 8 27 7 28 5 21 8 30 6 26v7l-4 1-3-5-6-26-5-24-8-35-6-29-3-9-2-8z" fill="#355974"/>
<path transform="translate(530,485)" d="m0 0 1 3-4 13-1 17 3 16 5 12 8 14 11 15 12 16 11 18 4 9v5l-8-10v-2l-5-2-2-1v-3l-11-2h-16l4-4 7-2v-2l-3-1-1-4 2-3 3-1-1-8-4-10-12-18-6-14-3-10-1-8v-9l3-14z" fill="#416CA5"/>
<path transform="translate(312,473)" d="m0 0 13 1 8 3 2 4v7l-6 5-10 3-22 2-7 1v98l2 52v14l-2 6-1-2v-35l-2-52v-76l2-6 3-2 6-1 17-1 10-2 6-3 2-2-1-5-5-3h-22l-18 2-32 1h-43l-7 3v-2l5-3 4-1 29-1 20 1 30-1v-2l2-1z" fill="#355974"/>
<path transform="translate(416,551)" d="m0 0 4 1 2 10 3 23 3 12v5l-2 2-14 2h-5v-8l4-20 4-23z" fill="#5BE1E7"/>
<path transform="translate(485,585)" d="m0 0h2l6 26 7 31 6 20 1 5v10l-5 10-4 5-7 5-12 4h-20l-10-3-8-6-7-8-5-10-7-23-3-4-5 1-2 5-5 26-5 9-9 8-6 2-9 2-2 2v-5l9-2 9-4 6-5 4-10 6-28 4-5 7 1 4 5 10 30 9 13 10 5 3 1h23l11-4 8-7 4-7 1-4v-10l-8-27-4-16-4-21-3-13z" fill="#22C2D8"/>
<path transform="translate(412,476)" d="m0 0 2 1-5 6-7 23-12 46-8 36-14 68-2 11v7l1 2 3 1h10l5-2 4-18 5-26 5-5 22-1 6-1h10l3 5 6 26 5 16 4 6 6 2h15l8-2v2l-10 3h-11l-9-3-4-5-4-10-7-28-2-9-1-1-12 1-23 1-3 1-4 14-5 27-3 7-6 3h-10l-5-3-1-1v-13l8-41 9-42 16-65 8-28 4-8z" fill="#355974"/>
<path transform="translate(1285,479)" d="m0 0 4 1 3 4-2 6-8 6-12 2-20 2-3 1-1 2v83l1 33v28l-1 18h-1l-2-46-1-36v-78l1-7 5-2 24-2 12-3 4-4-1-5z" fill="#337393"/>
<path transform="translate(1357,641)" d="m0 0h16l9 2 2 1v2l3 1 4 12v15l-4 6-5 4-8 2h-11l-11-4-6-8-1-5v-19l5-6zm5 3-9 3-3 4v17l2 6 4 4 10 3 12-1 6-3 3-4v-12l-3-10-6-5-5-2z" fill="#2BA6C6"/>
<path transform="translate(1270,497)" d="m0 0h6l-4 2-18 2-5 2-2 6v71l1 12 1 42v28l-3 10-3 3-4 2-7 1h-11l-9-3-5-4-2-5-1-7-1-63v-70h1l2 127 1 15h2l4 4 5 2h20v-2l5-3 1-4h2v-46l-1-33v-83l2-3 13-2z" fill="#25B5CE"/>
<path transform="translate(475,224)" d="m0 0m-9 1h9v2l-7 3-64 16-49 12-3-3 6-1v-2l46-11z" fill="#15202F"/>
<path transform="translate(1116,63)" d="m0 0h7l1 3h-4l-12 3v2l-38 9-35 9h-7l-2 1-8 1 1-4 75-19z" fill="#182837"/>
<path transform="translate(386,549)" d="m0 0h1l-1 9-10 40-9 44-3 15-1 7v12l4 4 2 1h11l6-3 4-9 5-26 4-13 2-1 27-2h7l2 3 6 25-1 4-7-25v-4l-18 1-14 1-4 6-8 38-4 5-6 3h-10l-7-3-4-5v-14l5-24 8-35 4-20z" fill="#22C2D8"/>
<path transform="translate(711,164)" d="m0 0h6v2h-2v2l-82 21-7 2-16 2 5-5z" fill="#192637"/>
<path transform="translate(335,481)" d="m0 0 2 3-1 7-1 2-6 2-12 3-18 2-6 2-1 2-1 60 2 69v30h-1l-1-14-2-52v-93l1-5 7-2 22-2 10-3 5-4z" fill="#3195BC"/>
<path transform="translate(1015,88)" d="m0 0 4 1-1 2 4-2h5l3-1 2 2-53 13-30 7h-4l1-5 37-9z" fill="#20384C"/>
<path transform="translate(1358,469)" d="m0 0h17l6 2 4 4 2 6 1 10 1 69-1 62h-1l-2-88-2-52-3-8-10-3-12-1z" fill="#2AA5C4"/>
<path transform="translate(417,535)" d="m0 0 4 2 2 13 1 19 6 30-1 5-3 2-9 1h-11l-1-1v-8l5-23v-9l3-13 2-16zm-1 16-4 19-4 24-1 4v8l13-1 7-2 1-1-1-9-3-15-3-23-2-4z" fill="#23BDD5"/>
<path transform="translate(1096,482)" d="m0 0 2 1v89l1 29 4 56 1 16-1 3-7 5-8 2-13-1-6-3v-3l6 3h17l7-3 2-4-4-64-1-20z" fill="#3181A3"/>
<path transform="translate(390,474)" d="m0 0 1 4-5 16-7 27-10 38-10 39-4 11-1 6h-1v-7l6-22 6-24 5-21 9-35 9-30z" fill="#22C2D8"/>
<path transform="translate(330,493)" d="m0 0h2v2l-11 4-4 1-13 1-9 3-1 2-1 17v45l1 54v44l-3 6-2-3 2-6h2l-3-99 1-60 4-4 14-2 18-3z" fill="#22C1D7"/>
<path transform="translate(1186,521)" d="m0 0h1l1 84 2 63 2 9 5 7 10 6 10 3 16 1 2 3-1 4-1-3-9-2-12-2-10-4-9-7-5-9-1-4-1-35-1-95z" fill="#22C1D7"/>
<path transform="translate(312,473)" d="m0 0 13 1 8 3v2h-28l-18 2-32 1h-43l-7 3v-2l5-3 4-1 29-1 20 1 30-1v-2l2-1z" fill="#2F88A7"/>
<path transform="translate(942,106)" d="m0 0h5l-2 5-64 16h-5l-1-2 1-2z" fill="#16202F"/>
<path transform="translate(353,253)" d="m0 0h5l-4 3 1 2-20 6 3 17 2 9v9l-3 1-9-35v-5l9-3z" fill="#304E6B"/>
<path transform="translate(211,501)" d="m0 0 10 1h28l1 1v105l1 47 1 11 2 6-3-3-2-5-2-93v-31l1-36-12 1-18-1-7-2z" fill="#22C2D8"/>
<path transform="translate(389,471)" d="m0 0 1 3-9 28-8 31-6 23-5 21-4 17-4 14-2-3-1-7 2-1 2 1 1-8 7-30 11-43 9-32z" fill="#3195BC"/>
<path transform="translate(1115,477)" d="m0 0h1l1 14v82l1 27 2 36v13h-1l-3-33-2-45v-46z" fill="#22C2D8"/>
<path transform="translate(315,455)" d="m0 0 5 2 13 2 12 6 5 5 4 6 1 3v14l-5 10-7 6-12 5-1-3 14-8 5-7 2-5v-10l-3-7-4-5-10-5-9-3-8-2-2-1z" fill="#26B5D0"/>
<path transform="translate(426,682)" d="m0 0 5 2v3l4 1 6 5 5 7 3 15 5 21 6 26-1 4-16-64-4-8-4-2 4 19v5l-2-3-2-10-2-1-1-4-3-1-1-5-2-1-2-3 1-5z" fill="#455D9A"/>
<path transform="translate(1270,497)" d="m0 0h6l-4 2-18 2-5 2-2 6v71l1 12 1 42v28h-1l-2-43-1-33v-83l2-3 13-2z" fill="#22C2D8"/>
<path transform="translate(1356,644)" d="m0 0h6v1l-9 3-2 3v17l2 6 3 3 10 3 12-1 6-3 2-3v-12l-3-10-3-4 4 2 3 6 2 1 1 5v12l-4 6-10 5h-13l-1-2-8-3-5-6-1-4v-17l3-5z" fill="#327EA1"/>
<path transform="translate(1205,411)" d="m0 0 3 2v5h3l1-2 6 21 3 18 1 7-3-1v-2h-2l-12-45z" fill="#356586"/>
<path transform="translate(430,625)" d="m0 0h6l2 2 6 26 4 14 2 9 6 5 8 2h10l12-4v2l-7 4-12 1-9-2-7-3-5-8-3-11-3-15-4-17-1-2-17 1h-17l1-2 22-1z" fill="#3195BC"/>
<path transform="translate(1255,476)" d="m0 0h28l2 1v2l-5-1h-15l-29 3-70 1-7 4-2 6 4 5h-4l-2-2v-7l6-7 3-1 55-1 21-1z" fill="#2E90B0"/>
<path transform="translate(414,472)" d="m0 0h7v1l-10 3-5 6-2 9-4 17-9 35-3 6h-1l1-9 7-28 8-29 4-6 4-4z" fill="#28AFCC"/>
<path transform="translate(477,628)" d="m0 0 2 3 4 18 3 13 3 7-1 9-9 5-5 1h-10l-9-3-6-5-1-6 3 4 5 5 7 2h11l10-2 1-10-7-25z" fill="#2F91B4"/>
<path transform="translate(1342,478)" d="m0 0h1l1 138 2 12-3-1-1-7-1-101v-37z" fill="#22BFD6"/>
<path transform="translate(760,152)" d="m0 0 4 1-2 1 3 1v1l-41 10-9 1 2-1v-2l-2-1z" fill="#203146"/>
<path transform="translate(421,452)" d="m0 0h13l12 3-2 2-10-1h-17l-11 4-8 6h-2l-4 8h-2v-6l4-5 9-6 12-4z" fill="#27B2CE"/>
<path transform="translate(453,460)" d="m0 0 4 2 6 9 6 21 6 28 5 24 5 21v7l-2-1-9-43-5-25-7-28-5-10z" fill="#3194BB"/>
<path transform="translate(873,595)" d="m0 0 42 1 75-1-2 2-76 2-20-1-16-1z" fill="#2E8FAF"/>
<path transform="translate(872,124)" d="m0 0 4 1 1 3-37 9h-3v-3l-2-1z" fill="#1C2F42"/>
<path transform="translate(416,451)" d="m0 0h21l12 3 4 3-1 2-6-2v-2l-12-2h-13l-16 4-8 5-3 1-2 4-5 11-3 7-2-2 4-10 3-7 6-7 5-3h2v-2l11-2z" fill="#455D9A"/>
<path transform="translate(530,485)" d="m0 0 1 3-4 13-1 17 3 16 5 12 8 14 8 11-1 2-11-15-8-14-6-18-1-8v-9l3-14z" fill="#2BA5C6"/>
<path transform="translate(1386,580)" d="m0 0h1v42l-4 7-5 3-17 1-10-3-4-4 1-2 6 5 3 1h17l5-2h3l2-6 1-41z" fill="#3282A5"/>
<path transform="translate(1100,632)" d="m0 0h1l3 36-1 8-7 5-8 2-13-1-6-3v-3l6 3h17l7-3 2-4-1-15z" fill="#2C96B4"/>
<path transform="translate(1357,641)" d="m0 0h16l9 2 2 1v2l3 1 2 9-3-1-3-6-10-4h-17l-6 4-1 3h-2l1-4 4-5z" fill="#2BA5C6"/>
<path transform="translate(1075,455)" d="m0 0 14 1v2h8l12 6 5 5 1 4-1 3-5-8-10-6-5-2-17-2-12 2-10 3 1-3z" fill="#27B2CE"/>
<path transform="translate(611,189)" d="m0 0 3 1-2 2 10-1-4 2-31 7-2-1 1-2h-5l4-2z" fill="#233A51"/>
<path transform="translate(384,246)" d="m0 0 4 1-4 4-29 7-3-3 6-1v-2z" fill="#203247"/>
<path transform="translate(538,645)" d="m0 0 2 3 5 9 6 8 11 7 13 4h24l7-1-2 2-4 1h-29l-10-3-10-7-7-7-6-11z" fill="#2F84A3"/>
<path transform="translate(1160,497)" d="m0 0 16 3 11 1h17l1 1v24h-1l-1-22h-29l-14-4z" fill="#22C1D7"/>
<path transform="translate(1356,644)" d="m0 0h6v1l-9 3-2 3v17l2 6 3 3 10 3 12-1 5-1-4 3-3 1h-14l-8-3-5-6-1-4v-17l3-5z" fill="#355974"/>
<path transform="translate(335,481)" d="m0 0 2 3-1 7-1 2-6 2-12 3-18 2-6 2-1 2h-2v-5l7-2 22-2 10-3 5-4z" fill="#3195BC"/>
<path transform="translate(1015,88)" d="m0 0 4 1-1 2 4-2h5l3-1 2 2-36 9-4-1 2-2h6v-2l4-1 3 1v-2l-3-1z" fill="#27445C"/>
<path transform="translate(365,556)" d="m0 0h1l-1 10-7 28-4 14-2-3-1-7 2-1 2 1 1-8 7-30z" fill="#3195BC"/>
<path transform="translate(1264,620)" d="m0 0h1l3 20h-2l3 27h-2l-2-9-2-13v-19z" fill="#23C2D8"/>
<path transform="translate(1210,421)" d="m0 0 2 4v3h2l1 5v2l4 10 3 13v4l-3-1v-2h-2l-3-16-4-17z" fill="#080E14"/>
<path transform="translate(1116,63)" d="m0 0h7l1 3h-4l-12 3v2l-9 2h-4l-1-5z" fill="#101823"/>
<path transform="translate(413,548)" d="m0 0h1l-1 9-8 35-2 11v4l8 2v1h-9l-2-5 3-16 5-22z" fill="#355974"/>
<path transform="translate(315,454)" d="m0 0 19 3 10 5 8 7 4 8v13h-1l-1-11-4-8-1-3-16-8-16-3z" fill="#455D9A"/>
<path transform="translate(1161,497)" d="m0 0 16 2h29v27h-1l-1-24h-17l-19-2-7-2z" fill="#32799A"/>
<path transform="translate(495,218)" d="m0 0 4 1 1 3-24 6-3-1h2v-2l-4-1z" fill="#1D2B3E"/>
<path transform="translate(457,540)" d="m0 0 1 4h2l2 6 4 21v8l-2 2-7-36z" fill="#2E8CAB"/>
<path transform="translate(1090,69)" d="m0 0h5l-1 5-20 5-3-1 3-2v-3z" fill="#172837"/>
<path transform="translate(548,603)" d="m0 0 10 1v1l-17 1-12 6-2 3h-2l-2 5-3 6-1 4-1 13h-1v-16l3-8 9-10 10-5z" fill="#22C2D8"/>
<path transform="translate(635,183)" d="m0 0 4 1-3 3h-5l-1 3-20 3 5-5z" fill="#0F1D27"/>
<path transform="translate(288,669)" d="m0 0 2 1v4l-7 3-12 1-13-2-4-3v-2l4 1 5 2h20v-2z" fill="#28AFCC"/>
<path transform="translate(1389,657)" d="m0 0 2 2v15l-4 6-5 4-8 2h-11l-11-4-3-3 1-2 8 5 5 1h13l10-5 3-5z" fill="#22C2D8"/>
<path transform="translate(1165,461)" d="m0 0 9 1v1l-16 3-8 4-7 6-3 3-1-3 6-7 6-4z" fill="#2AA9C8"/>
<path transform="translate(443,659)" d="m0 0 2 2 5 15 6 5 8 2h10l12-4v2l-7 4-12 1-9-2-7-3-5-8-3-11z" fill="#22C2D8"/>
<path transform="translate(312,473)" d="m0 0 13 1 8 3v2l-12-2h-28l2-2z" fill="#27B0CD"/>
<path transform="translate(417,535)" d="m0 0 4 2 2 13v6h-2l-2-11-5 3 1-11z" fill="#3187AC"/>
<path transform="translate(1276,739)" d="m0 0h6l-1 3-10 1-5 2h-17v-2l2-1 17-1z" fill="#010101"/>
<path transform="translate(1190,677)" d="m0 0 3 1 4 6 10 6 10 3 16 1 2 3-1 4-1-3-9-2-12-2-10-4-9-7z" fill="#22BFD6"/>
<path transform="translate(417,545)" d="m0 0h2l2 5v5l-2-3-3-1-1 10-2 9h-3l1-9 3-13z" fill="#2CA3C4"/>
<path transform="translate(1070,74)" d="m0 0h5l-2 4-7 3-10 1-1-4z" fill="#192A39"/>
<path transform="translate(731,159)" d="m0 0h5l4 3-20 5h-5l2-1v-2l-2-1z" fill="#1C3043"/>
<path transform="translate(999,92)" d="m0 0h8v2h-7v2l-7 2-2 2h-10l-3 1-1-2 6-1v-2z" fill="#10202A"/>
<path transform="translate(426,682)" d="m0 0 5 2v3l3 1h-2l2 8-1 5-1-3-3-1-1-5-2-1-2-3 1-5z" fill="#406DA6"/>
<path transform="translate(411,570)" d="m0 0h1v8l-4 20-1 8 11-1-1 2h-11l-1-1v-8z" fill="#22C2D8"/>
<path transform="translate(1050,465)" d="m0 0 2 1-7 7-2 4-3 32h-1v-23l2-12 5-5z" fill="#3195BC"/>
<path transform="translate(1164,480)" d="m0 0h36v1l-34 1-7 4-2 6 4 5h-4l-2-2v-7l6-7z" fill="#317997"/>
<path transform="translate(351,473)" d="m0 0 3 3 1 3v14l-5 10-7 6-9 4-3-1 12-6 8-9 2-7v-10z" fill="#3195BC"/>
<path transform="translate(292,622)" d="m0 0h2v44l-3 6-2-3 2-6h2z" fill="#23BCD4"/>
<path transform="translate(421,452)" d="m0 0h13l12 3-2 2-27-2z" fill="#26B4CF"/>
<path transform="translate(851,129)" d="m0 0 3 1-1 1 3 2-16 4h-3v-3l-2-1z" fill="#253C54"/>
<path transform="translate(711,164)" d="m0 0h6v2h-2v2l-15 4-3-1h2v-4z" fill="#1B293C"/>
<path transform="translate(202,486)" d="m0 0 1 2v6l3 3 6 2 21 2-2 2h-10l-14-2-6-5v-9z" fill="#3195BC"/>
<path transform="translate(444,456)" d="m0 0 9 3 8 11 4 12-1 4-3-8-4-10-4-5-9-5z" fill="#22BFD6"/>
<path transform="translate(301,476)" d="m0 0h20l6 1v1l-22 1-17 1 3-2z" fill="#336F8E"/>
<path transform="translate(211,501)" d="m0 0 10 1h28l1 5h-2v-3l-12 1-18-1-7-2z" fill="#22BFD6"/>
<path transform="translate(530,485)" d="m0 0 1 3-4 13-1 17v7h-1l-2-7v-9l3-14z" fill="#29ACCA"/>
<path transform="translate(1031,84)" d="m0 0h5l1 4-7 1-8 1-4 1 1-4z" fill="#0F1822"/>
<path transform="translate(416,451)" d="m0 0h21l12 3 4 3-1 2-6-2v-2l-12-2h-13l-7 1v-2z" fill="#455D9A"/>
<path transform="translate(352,490)" d="m0 0 1 4-4 7-7 7-9 4h-2l-1 2 1-4 10-5 5-4z" fill="#22C2D8"/>
<path transform="translate(572,604)" d="m0 0 3 3 5 11v5l-8-10v-2l-5-2-2-2 5 1 3 2z" fill="#2BA6C6"/>
<path transform="translate(410,570)" d="m0 0h1l-1 9-4 19h-2l1-10 4-17z" fill="#3195BC"/>
<path transform="translate(1270,497)" d="m0 0h6l-4 2-18 2-5 2-2 6h-2v-6l2-3 13-2z" fill="#22C2D8"/>
<path transform="translate(1179,304)" d="m0 0h5l2 5v6l-2 2-1-3h-2l-2-6z" fill="#2E4D67"/>
<path transform="translate(477,628)" d="m0 0 2 3 4 18 1 7-3-1-3-11z" fill="#2B9CB8"/>
<path transform="translate(454,516)" d="m0 0h1l3 18 2 5v5h-2l-3-10-1-5z" fill="#2D95B4"/>
<path transform="translate(1075,455)" d="m0 0 14 1v1l-20 2-12 4h-2l1-3z" fill="#2CA2C4"/>
<path transform="translate(979,97)" d="m0 0 4 1-2 1 7 1v1l-18 4-4-1 1-1h5v-2l-2-2z" fill="#385C7F"/>
<path transform="translate(521,655)" d="m0 0 3 4 6 10 9 10 2 3-5-2-8-9-7-13z" fill="#22C2D8"/>
<path transform="translate(542,623)" d="m0 0h14l2 1-1 2-7-1-9 2-3 6v11l-2-1v-12l2-5z" fill="#2F89A9"/>
<path transform="translate(550,573)" d="m0 0 5 5 10 13 7 11-1 2-8-11-12-17z" fill="#2BA4C5"/>
<path transform="translate(1160,497)" d="m0 0 16 3 11 1v2h-9l-16-2-3-3z" fill="#3195BC"/>
<path transform="translate(447,494)" d="m0 0 3 3 4 15v11l-2-4-5-22z" fill="#2F86A4"/>
<path transform="translate(286,478)" d="m0 0h5l-4 3h-25l1-2z" fill="#3281A4"/>
<path transform="translate(416,655)" d="m0 0h2l1 7-1 9-2 4h-1l-1-7 1-10z" fill="#416DA6"/>
<path transform="translate(327,478)" d="m0 0 6 1 2 2v7l-6 5-10 3h-6l2-2 10-2 6-3 2-2-1-5z" fill="#34607D"/>
<path transform="translate(1007,90)" d="m0 0 4 1v4l-15 4-4-1 2-2h6v-2l4-1 3 1v-2l-3-1z" fill="#375B7C"/>
<path transform="translate(358,586)" d="m0 0h1l-1 8-4 14-2-3-1-7 2-1 2 1 1-8z" fill="#3589B4"/>
<path transform="translate(1374,642)" d="m0 0 8 1 2 1v2l3 1 2 9-3-1-3-6-5-5z" fill="#28AECB"/>
<path transform="translate(1210,421)" d="m0 0 2 4v3h2l1 5v2l3 10-3 1-5-20z" fill="#030405"/>
<path transform="translate(353,253)" d="m0 0h5l-4 3 1 2-7 1v-2l-4 2v-2l-7 1 4-2z" fill="#345D7D"/>
<path transform="translate(478,222)" d="m0 0h6l4 3-12 3-3-1h2v-2l-4-1z" fill="#213950"/>
<path transform="translate(1043,81)" d="m0 0 3 1v4l-9 2-2-5z" fill="#1C2F40"/>
<path transform="translate(1389,657)" d="m0 0 2 2v15l-4 6-5 4-6 1 3-3 8-5 2-4z" fill="#22C0D7"/>
<path transform="translate(336,286)" d="m0 0 4 4v9l-3 1-2-13z" fill="#0B1017"/>
<path transform="translate(439,474)" d="m0 0 4 2 5 12 1 7-3-3-4-12-3-3z" fill="#2C95B2"/>
<path transform="translate(1209,670)" d="m0 0 9 4h17l4-1v2l-3 1h-22l-5-3z" fill="#2E9DC1"/>
<path transform="translate(1285,479)" d="m0 0 4 1 3 4-2 6-4 3h-5l5-4 2-2-1-5z" fill="#2E8AA7"/>
<path transform="translate(384,246)" d="m0 0 4 1-4 4-8 1-1-4z" fill="#1D2B3F"/>
<path transform="translate(950,104)" d="m0 0 4 1 3 3-8 2h-4l1-5z" fill="#203449"/>
<path transform="translate(1357,467)" d="m0 0h15l3 2-4 1h-16l-1-2z" fill="#2BA5C6"/>
<path transform="translate(538,645)" d="m0 0 2 3 5 9 5 7-4-1-6-9-2-4z" fill="#2E8EAD"/>
<path transform="translate(1050,465)" d="m0 0 2 1-7 7-2 4-1 12h-1v-15l5-5z" fill="#2DB9D2"/>
<path transform="translate(1078,72)" d="m0 0 4 1-3 1h6l1 2-12 3-3-1 3-2v-3z" fill="#2D4A66"/>
<path transform="translate(473,618)" d="m0 0h2v5h2l1 16-2-4-3-13z" fill="#317C9C"/>
<path transform="translate(1281,493)" d="m0 0 4 1-7 3-15 1 2-2z" fill="#2D9EC1"/>
<path transform="translate(1105,462)" d="m0 0 5 3 5 5v6l-4-5-5-5z" fill="#29AAC9"/>
<path transform="translate(1265,636)" d="m0 0h2l1 4h-2l2 16v7h-1l-2-12-1-13z" fill="#3096BC"/>
<path transform="translate(983,96)" d="m0 0 8 1v3h-10l-3 1-1-2 6-1z" fill="#1F3345"/>
<path transform="translate(1350,631)" d="m0 0 18 1h6v1l-5 1h-15z" fill="#2BA6C6"/>
<path transform="translate(1149,466)" d="m0 0m-1 1v3l-7 9-2-3 6-7z" fill="#2CA4C5"/>
<path transform="translate(335,481)" d="m0 0 2 3-1 7-1 2-8 2 7-7z" fill="#2AA8C8"/>
<path transform="translate(549,462)" d="m0 0 2 1-14 14v-3l7-8z" fill="#39C1D5"/>
<path transform="translate(572,650)" d="m0 0 4 2 4 3 7 1 4-1-4 4-6-1-8-6z" fill="#2F87A6"/>
<path transform="translate(417,535)" d="m0 0 4 2v6l-2-3h-2l-2 8h-1l1-11z" fill="#355974"/>
<path transform="translate(417,545)" d="m0 0h2l2 5v5l-2-3-3-1-1 4 1-9z" fill="#22C0D7"/>
<path transform="translate(392,533)" d="m0 0 1 3-3 9-3 4 1-9 1-3h2z" fill="#29AAC9"/>
<path transform="translate(1057,457)" d="m0 0h6v2l-7 2-4 4-2-1 5-6z" fill="#3E74AA"/>
<path transform="translate(1070,74)" d="m0 0h5l-2 4-5 1-3-2 1-2z" fill="#0D1C25"/>
<path transform="translate(472,604)" d="m0 0h1l2 9v5l-3-1-1-9z" fill="#2B98B5"/>
<path transform="translate(615,188)" d="m0 0h7v3l-12 2z" fill="#06090C"/>
<path transform="translate(1068,676)" d="m0 0 7 3 16 1v1h-19l-4-3z" fill="#307895"/>
<path transform="translate(525,507)" d="m0 0 1 4v14h-1l-2-7v-9z" fill="#26B4CF"/>
<path transform="translate(202,486)" d="m0 0 1 2v6l3 3 4 2v2l-5-1-4-4v-9z" fill="#2D92B1"/>
<path transform="translate(411,452)" d="m0 0h3v2l-13 5-2-1 3-4z" fill="#455B99"/>
<path transform="translate(440,452)" d="m0 0 9 2 4 3-1 2-6-2v-2l-6-1z" fill="#42659F"/>
<path transform="translate(740,157)" d="m0 0h5l-1 4h-9l1-3z" fill="#141E2A"/>
<path transform="translate(1372,642)" d="m0 0 7 2 1 3-7-2-11-1v-1z" fill="#336D8C"/>
<path transform="translate(580,197)" d="m0 0h6l-1 3-5 1v-2l-7 2 1-2z" fill="#080D12"/>
<path transform="translate(1229,694)" d="m0 0 5 1 1 6-2-1v-2l-9-2v-1z" fill="#23B4CE"/>
<path transform="translate(1250,499)" d="m0 0 2 1-4 5-1 4h-2v-6l2-3z" fill="#22BED6"/>
<path transform="translate(1351,469)" d="m0 0 7 1-4 2-6 4-2-1 3-5z" fill="#307D9C"/>
<path transform="translate(719,162)" d="m0 0 4 1-1 2 2 1-9 1 2-1v-2l-2-1z" fill="#29435F"/>
<path transform="translate(966,100)" d="m0 0h9l-3 1v2l-8 2v-3h2z" fill="#081116"/>
<path transform="translate(1344,621)" d="m0 0h3l2 6 4 4-5-1-4-6z" fill="#318EB4"/>
<path transform="translate(457,540)" d="m0 0 1 4h2l1 6-1 6h-1l-2-11z" fill="#317895"/>
<path transform="translate(1160,497)" d="m0 0 11 3v2l-9-1-3-3z" fill="#2AA9C8"/>
<path transform="translate(351,471)" d="m0 0 3 1 2 5v13h-1l-1-11-3-6z" fill="#43639E"/>
<path transform="translate(288,669)" d="m0 0 2 1-1 3-8 3-3-1 5-1v-2z" fill="#3280A3"/>
<path transform="translate(623,186)" d="m0 0 3 1v1l4 1-4 2h-4v-3l-3-1z" fill="#36587A"/>
</svg>
