<?xml version="1.0" encoding="UTF-8"?>
<svg version="1.1" viewBox="0 0 2048 1365" width="3000" height="2000" xmlns="http://www.w3.org/2000/svg">
<path transform="translate(0)" d="m0 0h2048v1365h-2048z" fill="#F6F6F6"/>
<path transform="translate(1707,173)" d="m0 0h3l16 28 15 26 14 24 11 19v2l2-1h121l2-6 4-6 6-11 13-23h2l2-5 13-24 13-23h3l-1 5-9 15-10 17-8 13-3 7-12 21-10 16-2 4 1 5 16 28 14 24 14 25 10 17 5 8h96v3h-98l-2 5-4 9-12 21-11 18-6 11-9 16-10 17-3 2-1-4 10-17 13-22 6-10 12-22 9-15h2l2-5 1-7-13-23-8-13-6-11-15-26-11-19-5-9v-2h-121l-2-1-2 5-15 26-10 17-6 9-1-3 13-23 14-25 3-5-1-6-45-78-9-15z" fill="#E3D3B2"/>
<path transform="translate(1959,805)" d="m0 0h89v3l-97 1-8 12-3 8-8 14-7 11-5 9-14 25-14 24 1 5 14 24 12 21 8 13 6 11 13 23 5 8 4 1h93v4h-98l-4-5-9-16-14-24-11-20-8-13-16-28-1-4 15-26 13-22 10-17 10-18 4-7h2l2-5 6-11z" fill="#E3D3B2"/>
<path transform="translate(1575,173)" d="m0 0 2 2-4 7-3 7-12 20-6 9-6 12-9 16-10 17-5 9 2 6 11 19 13 23 12 20 10 18 11 19 123 1 2-5 9-16 6-12 8-13 3-1-1 6-16 27-7 11-3 6h-125l-7-10-14-25-10-17-15-26-16-28 1-6 14-25 14-23 4-6 8-16 8-14h2l2-5z" fill="#E3D3B2"/>
<path transform="translate(435,1171)" d="m0 0 4 5 19 32 14 24-1 5-14 25-10 17-30 52-6 10-1 1h-115l-1-3h115l2-6 10-17 15-26 11-19 21-36-1-4-10-18-13-23-9-16z" fill="#BC9766"/>
<path transform="translate(285,699)" d="m0 0h126l16 28 45 78-1 5-16 28-15 25-3 3 1-5 11-20 12-21 7-12-1-4-14-25-10-17-15-26-14-24-6-10-122-1-2 5-8 13-1-2 9-17z" fill="#BC9766"/>
<path transform="translate(990)" d="m0 0h4l12 22 14 24 6 10v2l122-1 6-9 9-17 10-17 3-1-2 7-9 16-15 25h-125l-8-13-11-19-15-26z" fill="#E3D3B2"/>
<path transform="translate(275,715)" d="m0 0 2 3-2 5-11 19-8 13-13 24-16 27 6 12 11 19 30 52 7 12-1 3-3-1-5-10-14-24-16-28-15-26-4-7 1-5 15-26 15-25 8-14 6-11z" fill="#E4D4B3"/>
<path transform="translate(44,706)" d="m0 0 3 3 16 28 30 52 9 16-1 5-9 16-13 22-10 16-2-1 16-29 14-24 1-5-14-24-30-52-12-21z" fill="#BC9766"/>
<path transform="translate(1707,173)" d="m0 0h3l16 28 15 26 14 24 12 21-2 5-13 23-10 17-8 13-2 1 1-4 10-19 10-17 9-16-1-6-45-78-9-15z" fill="#BC9766"/>
<path transform="translate(283,1128)" d="m0 0 4 1-6 11-10 17-12 21-14 24-13 23-1 2-4-1 2-5 7-12 11-19 16-27 10-18 9-16z" fill="#E4D4B3"/>
<path transform="translate(1942,390)" d="m0 0h3v3l-10 18-11 18-7 12-6 11-13 23-5 5-1-4 10-17 13-22 6-10 12-22z" fill="#E3D2B1"/>
<path transform="translate(1879,57)" d="m0 0 2 1v4l-108-1 1-3z" fill="#E4D4B3"/>
<path transform="translate(1959,591)" d="m0 0h89v4h-89z" fill="#E4D4B3"/>
<path transform="translate(44,1133)" d="m0 0 3 3 28 49 15 26 8 14-1 2h-2l-45-78-8-14z" fill="#BC9766"/>
<path transform="translate(1959,805)" d="m0 0h89v3l-97 1-8 12-1 3h-2l2-5 7-13z" fill="#BC9766"/>
<path transform="translate(1950,378)" d="m0 0h98v3h-98l-2 5-4 6-1-2z" fill="#BC9766"/>
<path transform="translate(209,1018)" d="m0 0h9l1 4h-31l-78-1-1-2z" fill="#BC9766"/>
<path transform="translate(410,1128)" d="m0 0 3 1 5 10 8 13 10 17-1 5-4-5-14-25-5-9-3-6z" fill="#E4D4B3"/>
<path transform="translate(1944,173)" d="m0 0h3l-1 5-9 15-10 17-10 16-2 1 2-6 13-23z" fill="#BC9766"/>
<path transform="translate(1575,173)" d="m0 0 2 2-4 7-3 7-12 20-6 9-2-1 8-16 9-16h2l2-5z" fill="#E3D3B2"/>
<path transform="translate(66,865)" d="m0 0 2 1-3 7-6 11-14 22h-2l2-6 10-18 8-14z" fill="#E1D0AE"/>
<path transform="translate(436,863)" d="m0 0 2 3-2 5-12 21-7 11h-2l1-5 14-25z" fill="#E4D4B3"/>
<path transform="translate(0,1339)" d="m0 0h31v3h-31z" fill="#BC9766"/>
<path transform="translate(783,1347)" d="m0 0 3 1 9 16-4 1-9-16z" fill="#BC9766"/>
<path transform="translate(650,1347)" d="m0 0 3 2-5 8h-2l-1 7-5 1 5-11 3-3z" fill="#CFB48B"/>
<path transform="translate(1575,173)" d="m0 0 2 2-6 10-3 3 1-5z" fill="#BC9766"/>
<path transform="translate(1182)" d="m0 0h2l-2 5-5 8-1-2 5-10z" fill="#BC9766"/>
</svg>
